<?xml version="1.0" encoding="UTF-8"?>
<svg id="Capa_2" data-name="Capa 2" xmlns="http://www.w3.org/2000/svg" viewBox="0 0 66.71 72.6">
  <defs>
    <style>
      .cls-1 {
        fill: #fff;
      }

      .cls-2 {
        fill: #43ffd4;
      }
    </style>
  </defs>
  <g id="Layer_1" data-name="Layer 1">
    <path fill="#43ffd4" d="M49.44,69.05l-1.56-2.97c.4-.19,.8-.38,1.2-.59,16.13-8.49,22.31-28.44,13.82-44.57-.21-.4-.43-.78-.65-1.16l2.97-1.56c-3.39-5.9-8.22-10.51-13.81-13.62-.5,1-1.01,1.99-1.52,2.97-5.46-3.07-11.72-4.54-18.02-4.2,0-1.12-.02-2.23-.04-3.35-5.11,.25-10.25,1.59-15.07,4.12C8.84,8.3,3.1,15.01,0,22.74l3.19,.99C-.4,32.46-.24,42.66,4.5,51.66c.27,.51,.55,1.01,.84,1.51l-2.97,1.56c1.86,3.16,4.14,5.94,6.73,8.31,.77-.8,1.54-1.61,2.3-2.43,6.06,5.56,13.99,8.62,22.11,8.67-.22,1.1-.45,2.2-.68,3.29,5.58,.15,11.26-.96,16.6-3.53ZM6.29,50.72C-1.67,35.61,4.15,16.84,19.27,8.88c15.12-7.96,33.89-2.14,41.85,12.98,7.96,15.12,2.14,33.89-12.98,41.85-15.12,7.96-33.89,2.14-41.85-12.98Z"/>
    <g>
      <path class="cls-1" d="M35.84,31.73s.06,.03,.19,.08c.12,.04,.3,.17,.55,.2,.23,.04,.55,.1,.9,.06,.35-.02,.75-.1,1.15-.26,1.65-.59,3.44-2.26,4.44-4.37,.24-.51,.45-1.12,.52-1.68,.07-.59,.04-1.16-.04-1.69-.06-.54-.19-1.04-.32-1.52-.14-.47-.28-.91-.45-1.31-.3-.8-.69-1.41-.95-1.83-.3-.39-.49-.6-.49-.6-.19-.23-.37-.4-.55-.5-.85-.49-1.53-.79-2.24-.77-.35,0-.7,.08-1.08,.27,0,0-.26,.06-.63,.26-.92,.45-2.63,1.66-3.69,4.63-1.29,3.63,.3,7.94,2.7,9.03Z"/>
      <path class="cls-1" d="M35.66,17.69s.5-.4,1.15-.73c0-.04,0-.09,0-.13,0,.04,0,.09,0,.13,.4-.2,.85-.36,1.28-.39,1.14-.08,1.06-.59,.17-2.23-.13-.23-.3-.43-.47-.62,0,0,0,0,0,0-1.01-1.08-2.57-1.29-2.57-1.29,0,0-.04,1.05,.25,2.16,.28,1.1,.19,3.11,.19,3.11Z"/>
      <path class="cls-1" d="M24.15,32.92c1.08,.6,2.03,.66,2.63,.44,0,0,.25-.1,.69-.27,.23-.08,.47-.24,.76-.39,.3-.15,.61-.35,.96-.57,.34-.2,.7-.55,1.01-.9,.3-.37,.59-.8,.8-1.29,.09-.25,.19-.5,.26-.77,.05-.28,.09-.57,.13-.85,0-.27-.02-.53-.03-.8v-.2s-.05-.23-.05-.23l-.07-.4c-.19-1.06-.41-2.12-.69-3.1-.27-.98-.58-1.88-.91-2.63-.14-.38-.32-.72-.49-1-.17-.29-.29-.55-.45-.73-.29-.37-.46-.58-.46-.58-.35-.43-.73-.72-1.15-.83-2.3-.57-4.37-.45-5.53,2.67-1.16,3.12-1.76,7.82,.22,10.32,.8,1.03,1.62,1.68,2.35,2.1Z"/>
      <path class="cls-1" d="M25.81,16.35s0,0,0,0c.04,0,.08,0,.12,0,.94-.04,.63,.64,1.76,.55,.74-.05,.38-1.72,.03-2.9,0,0,0,0,0,0-.19-.64-.37-1.13-.37-1.13,0,0,.21-.66-1.24,.73-1.45,1.39-1.76,2.69-1.76,2.69,0,0,.59,.09,1.46,.06Z"/>
      <path class="cls-1" d="M17.6,30.07s0-.01,0-.02c0,0,0,.01,0,.02,.12-.05,.23-.09,.3-.1,.3-.02,.91-.15,.91-.15,0,0-.61-.72-.73-1.7,0,0,0,0,0,0-.01-.11-.02-.23-.02-.34,.02-1.15-.19-2.48-.19-2.48,0,0-.02,.03-.06,.09-.22,.39-1.06,1.91-1.33,3.58-.25,1.55,.61,1.28,1.12,1.09Z"/>
      <path class="cls-1" d="M45.2,27.12c.04,.06,.07,.09,.07,.09,.16,.53,.62,.41,1.13,.3,0,0,0,0,0,0,.27-.06,.53-.12,.79-.09,.74,.08,1.31-.32,1.13-1.44-.09-.53-.57-1.19-1.06-1.76,0,0,0,0,0,0-.54-.63-1.09-1.13-1.09-1.13,0,0-.36,1.63-.31,1.93,0,0-.03,.03-.07,.09-.02,.07-.13,.12-.18,.18-.15,.16-.34,.38-.45,.67-.06,.14-.1,.3-.11,.45-.03,.14,.02,.31,.03,.42,.02,.12,.11,.22,.13,.28Z"/>
      <path class="cls-1" d="M47.85,49.49c-.05-.23-.14-.44-.21-.66-.07-.21-.14-.42-.21-.63-.07-.24-.22-.4-.32-.6-.22-.38-.43-.74-.72-.99-.13-.14-.26-.27-.39-.4-.15-.14-.3-.22-.44-.33-.55-.43-1.11-.66-1.54-.87-.9-.39-1.41-.61-1.41-.61-.06-.07-.11-.16-.15-.25-.66-1.56-2.77-4.15-3.97-5.1-.15-.13-.37-.25-.61-.35-.19-.18-.37-.35-.54-.48-1.2-.95-5.47-1.48-5.47-1.48,0,0-2.85,.01-4.6,2.56-.17,.25-.34,.53-.49,.84-1.07,2.22-1.19,3.01-1.23,3.51-.05,.44-.05,.65-.59,1.41-.03,.03-.04,.07-.08,.1-.04,.04-.06,.08-.09,.12-.1,.14-.21,.28-.33,.44-1.41,1.97-3.03,5.16-2.35,8.15,.49,2.14,1.59,4.05,3.22,4.87,.83,.41,1.77,.56,2.86,.31,0,0,.14-.03,.39-.09,.25-.07,.63-.13,1.1-.28,.47-.13,1.03-.34,1.68-.49,.65-.18,1.4-.19,2.21-.11,.4,.08,.82,.13,1.26,.24,.43,.12,.88,.24,1.35,.37,.89,.28,1.83,.64,2.79,1.04,.97,.38,1.93,.91,3.12,1.06,1.22,.18,2.43-.63,3.12-1.47,.75-.88,1.38-1.85,1.8-2.89,.23-.51,.43-1.03,.56-1.57l.22-.79c.04-.27,.09-.53,.13-.8,.04-.26,.08-.53,.12-.78,0-.26,0-.52,.01-.78,0-.26,0-.51,0-.76-.03-.25-.07-.5-.1-.75-.04-.25-.07-.49-.11-.73Z"/>
      <path class="cls-1" d="M50.94,31.84c-.14-.39-.29-.74-.47-1.02-.16-.29-.34-.53-.49-.72-.14-.2-.29-.3-.38-.4-.09-.09-.14-.14-.14-.14,0,0,0,0,0,0-.57-.58-1.31-.99-2.24-1.17-.22,.04-.42,.05-.57-.04,.15,.08,.35,.08,.57,.03-.15-.03-.28-.07-.42-.07,0,0-.1-.05-.29-.08,0,0,0,0,0,0,0,0,0,0,0,0,0,0,0,0,0,0,0,0,0,0,0,0-.52-.07-1.7,.06-3.17,1.99,0,0-.28,.26-.65,.68-.17,.22-.39,.46-.6,.74-.23,.26-.37,.63-.54,.97-.15,.35-.33,.7-.43,1.03-.11,.33-.17,.66-.25,.93-.15,.51-.23,.9-.23,.9-.51,.71-.58,2.19,.43,3.91,.74,1.26,2.65,3.54,4.34,4.53,0,0,0,0,0,0,.61,.36,1.21,.55,1.69,.44,0,0,.27-.03,.74-.09,.23-.05,.52-.07,.84-.19,.17-.04,.34-.11,.5-.22,.17-.1,.35-.21,.48-.38,.33-.3,.53-.71,.76-1.13,.16-.44,.39-.93,.48-1.42,.11-.48,.26-1.01,.34-1.54,.09-.53,.16-1.07,.22-1.61,.22-2.17,.04-4.4-.55-5.95Z"/>
      <path class="cls-1" d="M22.8,45.6c.22-.16,.45-.31,.67-.5,.18-.22,.41-.46,.55-.71,.13-.26,.25-.48,.37-.81,.38-1.08,.97-2.18,1.48-3.33,.23-.59,.48-1.18,.54-1.87,.02-.17,0-.35-.01-.53-.04-.18-.12-.42-.2-.52-.21-.31-.41-.47-.61-.7-.8-.86-1.55-1.67-2.24-2.3-1.36-1.28-2.31-2.1-2.31-2.1-.47-.43-.84-.73-1.02-.8-.78-.29-2.34,.38-2.34,.38,0,0-1.56,.05-1.78,3.85-.22,3.8-.1,7.13,2.1,9.07,.32,.29,.67,.51,1.01,.69,0,0,.27,.14,.78,.38,.27,.05,.59,.19,.98,.21,.19,0,.41,.03,.63,.02,.22-.04,.45-.08,.69-.12,.23-.1,.47-.2,.71-.3Z"/>
    </g>
  </g>
</svg>